<svg xmlns="http://www.w3.org/2000/svg" width="208" height="208" viewBox="0 0 208 208" fill="none">
<path d="M208 115.261C208 112.219 205.308 109.883 202.297 110.31L115.297 122.673C112.832 123.024 111 125.134 111 127.624V176.376C111 178.866 112.832 180.976 115.297 181.327L202.297 193.69C205.308 194.117 208 191.781 208 188.739V115.261Z" fill="#FFFFFF"/>
<path d="M0 19.2607C0 16.2195 2.69243 13.8826 5.70344 14.3105L92.7034 26.6732C95.1683 27.0235 97 29.1338 97 31.6235V80.3765C97 82.8661 95.1683 84.9765 92.7034 85.3268L5.70344 97.6895C2.69244 98.1174 0 95.7805 0 92.7393V19.2607Z" fill="#FFFFFF"/>
<path d="M97 104.498C97 101.376 94.1706 99.0179 91.0997 99.5801L4.09967 115.506C1.72497 115.941 0 118.01 0 120.425V186.075C0 188.49 1.72496 190.559 4.09966 190.994L91.0997 206.92C94.1706 207.482 97 205.124 97 202.002V104.498Z" fill="#FFFFFF"/>
<path d="M111 5.99838C111 2.87642 113.829 0.517949 116.9 1.08011L203.9 17.0063C206.275 17.441 208 19.5104 208 21.9245V87.5754C208 89.9896 206.275 92.059 203.9 92.4937L116.9 108.42C113.829 108.982 111 106.624 111 103.502V5.99838Z" fill="#FFFFFF"/>
</svg>
